<svg width="60" height="60" viewBox="0 0 60 60" fill="none" xmlns="http://www.w3.org/2000/svg">
<g id="Icon_crystal 4">
<g id="Union">
<path fill-rule="evenodd" clip-rule="evenodd" d="M30.6788 6.45022C30.4834 6.32355 30.2503 6.25 30 6.25C29.7497 6.25 29.5166 6.32355 29.3212 6.45022L9.35367 18.9299C9.17388 19.0383 9.0194 19.1931 8.91027 19.3876C8.8895 19.4246 8.87061 19.4626 8.85368 19.5015C8.77983 19.671 8.74654 19.8488 8.75 20.0237V39.9763C8.74654 40.1511 8.77983 40.329 8.85368 40.4985C8.87061 40.5374 8.8895 40.5754 8.91027 40.6124C9.0194 40.8069 9.17389 40.9617 9.35368 41.0701L29.3211 53.5498C29.5053 53.6691 29.723 53.7413 29.9569 53.7493C29.9713 53.7498 29.9856 53.75 30 53.75C30.021 53.75 30.042 53.7495 30.063 53.7484C30.2894 53.7372 30.4999 53.6657 30.6789 53.5498L50.6448 41.0711C50.8414 40.953 51.0079 40.7794 51.1181 40.559C51.2122 40.3708 51.2543 40.1702 51.25 39.9734V20.0265C51.2543 19.8298 51.2122 19.6292 51.1181 19.441C51.0079 19.2206 50.8414 19.047 50.6448 18.9289L30.6788 6.45022ZM47.4475 19.8787L31.25 9.75531V14.3492L42.6069 22.299L47.4475 19.8787ZM43.75 24.5226V35.4774L48.75 37.9774V22.0226L43.75 24.5226ZM47.4475 40.1213L42.947 37.871L31.25 45.669V50.2447L47.4475 40.1213ZM28.75 45.669L17.0531 37.871L12.5525 40.1213L28.75 50.2447V45.669ZM11.25 37.9775L16.25 35.4775V24.5225L11.25 22.0225V37.9775ZM28.75 9.75531L12.5525 19.8787L17.3931 22.299L28.75 14.3492V9.75531ZM18.75 35.9977V24.4008L30 16.5258L41.25 24.4008V35.9977L30 43.4977L18.75 35.9977Z" fill="#56A2FF"/>
<path d="M30.6788 6.45022L30.4069 6.86988L30.4138 6.87422L30.6788 6.45022ZM29.3212 6.45022L29.5862 6.87427L29.5931 6.86982L29.3212 6.45022ZM9.35367 18.9299L9.61181 19.3582L9.61867 19.3539L9.35367 18.9299ZM8.91027 19.3876L9.34617 19.6326L9.34636 19.6322L8.91027 19.3876ZM8.85368 19.5015L9.31204 19.7013L9.31219 19.701L8.85368 19.5015ZM8.75 20.0237H9.2501L9.2499 20.0138L8.75 20.0237ZM8.75 39.9763L9.25 39.9862V39.9763H8.75ZM8.85368 40.4985L9.31219 40.299L9.31204 40.2987L8.85368 40.4985ZM8.91027 40.6124L9.34636 40.3678L9.34617 40.3674L8.91027 40.6124ZM9.35368 41.0701L9.61871 40.6461L9.61178 40.6419L9.35368 41.0701ZM29.3211 53.5498L29.5931 53.1301L29.5861 53.1258L29.3211 53.5498ZM29.9569 53.7493L29.9742 53.2496L29.9738 53.2495L29.9569 53.7493ZM30.063 53.7484L30.0382 53.249L30.0379 53.249L30.063 53.7484ZM30.6789 53.5498L30.4138 53.1257L30.407 53.1302L30.6789 53.5498ZM50.6448 41.0711L50.3873 40.6424L50.3798 40.6471L50.6448 41.0711ZM51.1181 40.559L51.5653 40.7826L51.1181 40.559ZM51.25 39.9734H50.7499L50.7501 39.9845L51.25 39.9734ZM51.25 20.0265L50.75 20.0155V20.0265H51.25ZM51.1181 19.441L51.5653 19.2174L51.5653 19.2174L51.1181 19.441ZM50.6448 18.9289L50.3797 19.353L50.3873 19.3575L50.6448 18.9289ZM47.4475 19.8787L47.6711 20.3259C47.8329 20.2451 47.9383 20.0831 47.9469 19.9025C47.9555 19.7218 47.8659 19.5506 47.7125 19.4547L47.4475 19.8787ZM31.25 9.75531L31.515 9.33131C31.3609 9.23498 31.1666 9.22988 31.0076 9.31799C30.8486 9.4061 30.75 9.57355 30.75 9.75531H31.25ZM31.25 14.3492H30.75C30.75 14.5123 30.8296 14.6652 30.9633 14.7588L31.25 14.3492ZM42.6069 22.299L42.3202 22.7086C42.4705 22.8139 42.6664 22.8283 42.8305 22.7462L42.6069 22.299ZM43.75 24.5226L43.5264 24.0753C43.357 24.16 43.25 24.3332 43.25 24.5226H43.75ZM43.75 35.4774H43.25C43.25 35.6668 43.357 35.84 43.5264 35.9247L43.75 35.4774ZM48.75 37.9774L48.5264 38.4247C48.6814 38.5022 48.8655 38.4939 49.0129 38.4028C49.1603 38.3117 49.25 38.1507 49.25 37.9774H48.75ZM48.75 22.0226H49.25C49.25 21.8493 49.1603 21.6883 49.0129 21.5972C48.8655 21.5061 48.6814 21.4978 48.5264 21.5753L48.75 22.0226ZM42.947 37.871L43.1706 37.4238C43.0101 37.3435 42.8189 37.3555 42.6696 37.455L42.947 37.871ZM47.4475 40.1213L47.7125 40.5453C47.8659 40.4494 47.9555 40.2782 47.9469 40.0975C47.9383 39.9169 47.8329 39.7549 47.6711 39.6741L47.4475 40.1213ZM31.25 45.669L30.9727 45.253C30.8336 45.3457 30.75 45.5018 30.75 45.669H31.25ZM31.25 50.2447H30.75C30.75 50.4265 30.8486 50.5939 31.0076 50.682C31.1666 50.7701 31.3609 50.765 31.515 50.6687L31.25 50.2447ZM17.0531 37.871L17.3304 37.455C17.1811 37.3555 16.9899 37.3436 16.8295 37.4238L17.0531 37.871ZM28.75 45.669H29.25C29.25 45.5018 29.1665 45.3457 29.0273 45.253L28.75 45.669ZM12.5525 40.1213L12.3289 39.6741C12.1672 39.755 12.0617 39.9169 12.0531 40.0976C12.0445 40.2782 12.1342 40.4494 12.2875 40.5453L12.5525 40.1213ZM28.75 50.2447L28.485 50.6687C28.6391 50.765 28.8334 50.7701 28.9924 50.682C29.1514 50.5939 29.25 50.4265 29.25 50.2447H28.75ZM16.25 35.4775L16.4736 35.9247C16.643 35.84 16.75 35.6669 16.75 35.4775H16.25ZM11.25 37.9775H10.75C10.75 38.1508 10.8397 38.3117 10.9871 38.4028C11.1345 38.4939 11.3186 38.5022 11.4736 38.4247L11.25 37.9775ZM16.25 24.5225H16.75C16.75 24.3331 16.643 24.16 16.4736 24.0753L16.25 24.5225ZM11.25 22.0225L11.4736 21.5753C11.3186 21.4978 11.1345 21.5061 10.9871 21.5972C10.8397 21.6883 10.75 21.8492 10.75 22.0225H11.25ZM12.5525 19.8787L12.2875 19.4547C12.1342 19.5506 12.0445 19.7218 12.0531 19.9024C12.0617 20.0831 12.1672 20.245 12.3289 20.3259L12.5525 19.8787ZM28.75 9.75531H29.25C29.25 9.57355 29.1514 9.4061 28.9924 9.31799C28.8334 9.22988 28.6391 9.23498 28.485 9.33131L28.75 9.75531ZM17.3931 22.299L17.1695 22.7462C17.3336 22.8283 17.5295 22.8138 17.6798 22.7086L17.3931 22.299ZM28.75 14.3492L29.0367 14.7588C29.1704 14.6652 29.25 14.5123 29.25 14.3492H28.75ZM18.75 24.4008L18.4633 23.9912C18.3296 24.0848 18.25 24.2377 18.25 24.4008H18.75ZM18.75 35.9977H18.25C18.25 36.1649 18.3336 36.321 18.4727 36.4137L18.75 35.9977ZM30 16.5258L30.2867 16.1162C30.1146 15.9957 29.8854 15.9957 29.7133 16.1162L30 16.5258ZM41.25 24.4008H41.75C41.75 24.2377 41.6704 24.0848 41.5367 23.9912L41.25 24.4008ZM41.25 35.9977L41.5274 36.4137C41.6665 36.321 41.75 36.1649 41.75 35.9977H41.25ZM30 43.4977L29.7227 43.9137C29.8906 44.0257 30.1094 44.0257 30.2773 43.9137L30 43.4977ZM30 6.75C30.1509 6.75 30.29 6.79404 30.4069 6.86982L30.9507 6.03061C30.6767 5.85306 30.3496 5.75 30 5.75V6.75ZM29.5931 6.86982C29.71 6.79404 29.8491 6.75 30 6.75V5.75C29.6504 5.75 29.3233 5.85306 29.0493 6.03061L29.5931 6.86982ZM9.61867 19.3539L29.5862 6.87422L29.0562 6.02622L9.08867 18.5059L9.61867 19.3539ZM9.34636 19.6322C9.41191 19.5154 9.50414 19.423 9.61178 19.3581L9.09556 18.5017C8.84362 18.6535 8.6269 18.8708 8.47418 19.143L9.34636 19.6322ZM9.31219 19.701C9.32235 19.6776 9.33369 19.6548 9.34617 19.6326L8.47438 19.1427C8.44531 19.1944 8.41887 19.2476 8.39517 19.3021L9.31219 19.701ZM9.2499 20.0138C9.24783 19.9094 9.26763 19.8032 9.31204 19.7013L8.39532 19.3018C8.29202 19.5388 8.24524 19.7883 8.2501 20.0336L9.2499 20.0138ZM9.25 39.9763V20.0237H8.25V39.9763H9.25ZM9.31204 40.2987C9.26763 40.1968 9.24783 40.0906 9.2499 39.9862L8.2501 39.9664C8.24524 40.2117 8.29202 40.4612 8.39533 40.6982L9.31204 40.2987ZM9.34617 40.3674C9.33369 40.3452 9.32235 40.3224 9.31219 40.299L8.39517 40.6979C8.41887 40.7524 8.44531 40.8056 8.47438 40.8573L9.34617 40.3674ZM9.61178 40.6419C9.50414 40.577 9.41191 40.4846 9.34636 40.3678L8.47418 40.857C8.6269 41.1292 8.84363 41.3465 9.09558 41.4983L9.61178 40.6419ZM29.5861 53.1258L9.61868 40.6461L9.08868 41.4941L29.0561 53.9738L29.5861 53.1258ZM29.9738 53.2495C29.8332 53.2448 29.7033 53.2016 29.593 53.1302L29.0492 53.9694C29.3074 54.1367 29.6128 54.2379 29.94 54.249L29.9738 53.2495ZM30 53.25C29.9914 53.25 29.9828 53.2499 29.9742 53.2496L29.9396 54.249C29.9598 54.2497 29.9799 54.25 30 54.25V53.25ZM30.0379 53.249C30.0252 53.2497 30.0126 53.25 30 53.25V54.25C30.0294 54.25 30.0588 54.2493 30.0881 54.2478L30.0379 53.249ZM30.407 53.1302C30.2998 53.1996 30.1742 53.2423 30.0382 53.249L30.0878 54.2478C30.4046 54.2321 30.7 54.1319 30.9508 53.9694L30.407 53.1302ZM50.3798 40.6471L30.4139 53.1258L30.9439 53.9738L50.9098 41.4951L50.3798 40.6471ZM50.6708 40.3354C50.6044 40.4683 50.5049 40.5718 50.3873 40.6425L50.9022 41.4997C51.1779 41.3341 51.4114 41.0904 51.5653 40.7826L50.6708 40.3354ZM50.7501 39.9845C50.7527 40.1018 50.7277 40.2217 50.6708 40.3354L51.5653 40.7826C51.6966 40.5199 51.756 40.2385 51.7499 39.9624L50.7501 39.9845ZM50.75 20.0265V39.9734H51.75V20.0265H50.75ZM50.6708 19.6646C50.7277 19.7783 50.7527 19.8982 50.7501 20.0155L51.7499 20.0376C51.756 19.7615 51.6966 19.4801 51.5653 19.2174L50.6708 19.6646ZM50.3873 19.3575C50.5049 19.4282 50.6044 19.5317 50.6709 19.6646L51.5653 19.2174C51.4114 18.9096 51.1779 18.6659 50.9023 18.5003L50.3873 19.3575ZM30.4138 6.87422L50.3798 19.3529L50.9098 18.5049L30.9438 6.02622L30.4138 6.87422ZM47.7125 19.4547L31.515 9.33131L30.985 10.1793L47.1825 20.3027L47.7125 19.4547ZM30.75 9.75531V14.3492H31.75V9.75531H30.75ZM30.9633 14.7588L42.3202 22.7086L42.8936 21.8894L31.5367 13.9396L30.9633 14.7588ZM42.8305 22.7462L47.6711 20.3259L47.2239 19.4315L42.3833 21.8518L42.8305 22.7462ZM43.25 24.5226V35.4774H44.25V24.5226H43.25ZM43.5264 35.9247L48.5264 38.4247L48.9736 37.5302L43.9736 35.0302L43.5264 35.9247ZM49.25 37.9774V22.0226H48.25V37.9774H49.25ZM48.5264 21.5753L43.5264 24.0753L43.9736 24.9698L48.9736 22.4698L48.5264 21.5753ZM42.7234 38.3182L47.2239 40.5685L47.6711 39.6741L43.1706 37.4238L42.7234 38.3182ZM31.5273 46.085L43.2243 38.287L42.6696 37.455L30.9727 45.253L31.5273 46.085ZM31.75 50.2447V45.669H30.75V50.2447H31.75ZM47.1825 39.6973L30.985 49.8207L31.515 50.6687L47.7125 40.5453L47.1825 39.6973ZM16.7757 38.287L28.4727 46.085L29.0273 45.253L17.3304 37.455L16.7757 38.287ZM12.7762 40.5685L17.2767 38.3182L16.8295 37.4238L12.3289 39.6741L12.7762 40.5685ZM29.015 49.8207L12.8175 39.6973L12.2875 40.5453L28.485 50.6687L29.015 49.8207ZM28.25 45.669V50.2447H29.25V45.669H28.25ZM16.0264 35.0303L11.0264 37.5303L11.4736 38.4247L16.4736 35.9247L16.0264 35.0303ZM15.75 24.5225V35.4775H16.75V24.5225H15.75ZM11.0264 22.4697L16.0264 24.9697L16.4736 24.0753L11.4736 21.5753L11.0264 22.4697ZM11.75 37.9775V22.0225H10.75V37.9775H11.75ZM12.8175 20.3027L29.015 10.1793L28.485 9.33131L12.2875 19.4547L12.8175 20.3027ZM17.6167 21.8518L12.7762 19.4315L12.3289 20.3259L17.1695 22.7462L17.6167 21.8518ZM28.4633 13.9396L17.1064 21.8894L17.6798 22.7086L29.0367 14.7588L28.4633 13.9396ZM28.25 9.75531V14.3492H29.25V9.75531H28.25ZM18.25 24.4008V35.9977H19.25V24.4008H18.25ZM29.7133 16.1162L18.4633 23.9912L19.0367 24.8104L30.2867 16.9354L29.7133 16.1162ZM41.5367 23.9912L30.2867 16.1162L29.7133 16.9354L40.9633 24.8104L41.5367 23.9912ZM41.75 35.9977V24.4008H40.75V35.9977H41.75ZM30.2773 43.9137L41.5274 36.4137L40.9726 35.5817L29.7227 43.0817L30.2773 43.9137ZM18.4727 36.4137L29.7227 43.9137L30.2773 43.0817L19.0274 35.5817L18.4727 36.4137Z" fill="#36668D"/>
</g>
</g>
</svg>
