<svg width="192" height="60" viewBox="0 0 192 60" fill="none" xmlns="http://www.w3.org/2000/svg">
<path fill-rule="evenodd" clip-rule="evenodd" d="M30.6788 6.45022C30.4834 6.32355 30.2503 6.25 30 6.25C29.7497 6.25 29.5166 6.32355 29.3212 6.45022L9.35367 18.9299C9.17388 19.0383 9.0194 19.1931 8.91027 19.3876C8.8895 19.4246 8.87061 19.4626 8.85368 19.5015C8.77983 19.671 8.74654 19.8488 8.75 20.0237V39.9763C8.74654 40.1511 8.77983 40.329 8.85368 40.4985C8.87061 40.5374 8.8895 40.5754 8.91027 40.6124C9.0194 40.8069 9.17389 40.9617 9.35368 41.0701L29.3211 53.5498C29.5053 53.6691 29.723 53.7413 29.9569 53.7493C29.9713 53.7498 29.9856 53.75 30 53.75C30.021 53.75 30.042 53.7495 30.063 53.7484C30.2894 53.7372 30.4999 53.6657 30.6789 53.5498L50.6448 41.0711C50.8414 40.953 51.0079 40.7794 51.1181 40.559C51.2122 40.3708 51.2543 40.1702 51.25 39.9734V20.0265C51.2543 19.8298 51.2122 19.6292 51.1181 19.441C51.0079 19.2206 50.8414 19.047 50.6448 18.9289L30.6788 6.45022ZM47.4475 19.8787L31.25 9.75531V14.3492L42.6069 22.299L47.4475 19.8787ZM43.75 24.5226V35.4774L48.75 37.9774V22.0226L43.75 24.5226ZM47.4475 40.1213L42.947 37.871L31.25 45.669V50.2447L47.4475 40.1213ZM28.75 45.669L17.0531 37.871L12.5525 40.1213L28.75 50.2447V45.669ZM11.25 37.9775L16.25 35.4775V24.5225L11.25 22.0225V37.9775ZM28.75 9.75531L12.5525 19.8787L17.3931 22.299L28.75 14.3492V9.75531ZM18.75 35.9977V24.4008L30 16.5258L41.25 24.4008V35.9977L30 43.4977L18.75 35.9977Z" fill="#56A2FF"/>
<path d="M30.6788 6.45022L30.4069 6.86988L30.4138 6.87422L30.6788 6.45022ZM29.3212 6.45022L29.5862 6.87427L29.5931 6.86982L29.3212 6.45022ZM9.35367 18.9299L9.61181 19.3582L9.61867 19.3539L9.35367 18.9299ZM8.91027 19.3876L9.34617 19.6326L9.34636 19.6322L8.91027 19.3876ZM8.85368 19.5015L9.31204 19.7013L9.31219 19.701L8.85368 19.5015ZM8.75 20.0237H9.2501L9.2499 20.0138L8.75 20.0237ZM8.75 39.9763L9.25 39.9862V39.9763H8.75ZM8.85368 40.4985L9.31219 40.299L9.31204 40.2987L8.85368 40.4985ZM8.91027 40.6124L9.34636 40.3678L9.34617 40.3674L8.91027 40.6124ZM9.35368 41.0701L9.61871 40.6461L9.61178 40.6419L9.35368 41.0701ZM29.3211 53.5498L29.5931 53.1301L29.5861 53.1258L29.3211 53.5498ZM29.9569 53.7493L29.9742 53.2496L29.9738 53.2495L29.9569 53.7493ZM30.063 53.7484L30.0382 53.249L30.0379 53.249L30.063 53.7484ZM30.6789 53.5498L30.4138 53.1257L30.407 53.1302L30.6789 53.5498ZM50.6448 41.0711L50.3873 40.6424L50.3798 40.6471L50.6448 41.0711ZM51.1181 40.559L51.5653 40.7826L51.1181 40.559ZM51.25 39.9734H50.7499L50.7501 39.9845L51.25 39.9734ZM51.25 20.0265L50.75 20.0155V20.0265H51.25ZM51.1181 19.441L51.5653 19.2174L51.5653 19.2174L51.1181 19.441ZM50.6448 18.9289L50.3797 19.353L50.3873 19.3575L50.6448 18.9289ZM47.4475 19.8787L47.6711 20.3259C47.8329 20.2451 47.9383 20.0831 47.9469 19.9025C47.9555 19.7218 47.8659 19.5506 47.7125 19.4547L47.4475 19.8787ZM31.25 9.75531L31.515 9.33131C31.3609 9.23498 31.1666 9.22988 31.0076 9.31799C30.8486 9.4061 30.75 9.57355 30.75 9.75531H31.25ZM31.25 14.3492H30.75C30.75 14.5123 30.8296 14.6652 30.9633 14.7588L31.25 14.3492ZM42.6069 22.299L42.3202 22.7086C42.4705 22.8139 42.6664 22.8283 42.8305 22.7462L42.6069 22.299ZM43.75 24.5226L43.5264 24.0753C43.357 24.16 43.25 24.3332 43.25 24.5226H43.75ZM43.75 35.4774H43.25C43.25 35.6668 43.357 35.84 43.5264 35.9247L43.75 35.4774ZM48.75 37.9774L48.5264 38.4247C48.6814 38.5022 48.8655 38.4939 49.0129 38.4028C49.1603 38.3117 49.25 38.1507 49.25 37.9774H48.75ZM48.75 22.0226H49.25C49.25 21.8493 49.1603 21.6883 49.0129 21.5972C48.8655 21.5061 48.6814 21.4978 48.5264 21.5753L48.75 22.0226ZM42.947 37.871L43.1706 37.4238C43.0101 37.3435 42.8189 37.3555 42.6696 37.455L42.947 37.871ZM47.4475 40.1213L47.7125 40.5453C47.8659 40.4494 47.9555 40.2782 47.9469 40.0975C47.9383 39.9169 47.8329 39.7549 47.6711 39.6741L47.4475 40.1213ZM31.25 45.669L30.9727 45.253C30.8336 45.3457 30.75 45.5018 30.75 45.669H31.25ZM31.25 50.2447H30.75C30.75 50.4265 30.8486 50.5939 31.0076 50.682C31.1666 50.7701 31.3609 50.765 31.515 50.6687L31.25 50.2447ZM17.0531 37.871L17.3304 37.455C17.1811 37.3555 16.9899 37.3436 16.8295 37.4238L17.0531 37.871ZM28.75 45.669H29.25C29.25 45.5018 29.1665 45.3457 29.0273 45.253L28.75 45.669ZM12.5525 40.1213L12.3289 39.6741C12.1672 39.755 12.0617 39.9169 12.0531 40.0976C12.0445 40.2782 12.1342 40.4494 12.2875 40.5453L12.5525 40.1213ZM28.75 50.2447L28.485 50.6687C28.6391 50.765 28.8334 50.7701 28.9924 50.682C29.1514 50.5939 29.25 50.4265 29.25 50.2447H28.75ZM16.25 35.4775L16.4736 35.9247C16.643 35.84 16.75 35.6669 16.75 35.4775H16.25ZM11.25 37.9775H10.75C10.75 38.1508 10.8397 38.3117 10.9871 38.4028C11.1345 38.4939 11.3186 38.5022 11.4736 38.4247L11.25 37.9775ZM16.25 24.5225H16.75C16.75 24.3331 16.643 24.16 16.4736 24.0753L16.25 24.5225ZM11.25 22.0225L11.4736 21.5753C11.3186 21.4978 11.1345 21.5061 10.9871 21.5972C10.8397 21.6883 10.75 21.8492 10.75 22.0225H11.25ZM12.5525 19.8787L12.2875 19.4547C12.1342 19.5506 12.0445 19.7218 12.0531 19.9024C12.0617 20.0831 12.1672 20.245 12.3289 20.3259L12.5525 19.8787ZM28.75 9.75531H29.25C29.25 9.57355 29.1514 9.4061 28.9924 9.31799C28.8334 9.22988 28.6391 9.23498 28.485 9.33131L28.75 9.75531ZM17.3931 22.299L17.1695 22.7462C17.3336 22.8283 17.5295 22.8138 17.6798 22.7086L17.3931 22.299ZM28.75 14.3492L29.0367 14.7588C29.1704 14.6652 29.25 14.5123 29.25 14.3492H28.75ZM18.75 24.4008L18.4633 23.9912C18.3296 24.0848 18.25 24.2377 18.25 24.4008H18.75ZM18.75 35.9977H18.25C18.25 36.1649 18.3336 36.321 18.4727 36.4137L18.75 35.9977ZM30 16.5258L30.2867 16.1162C30.1146 15.9957 29.8854 15.9957 29.7133 16.1162L30 16.5258ZM41.25 24.4008H41.75C41.75 24.2377 41.6704 24.0848 41.5367 23.9912L41.25 24.4008ZM41.25 35.9977L41.5274 36.4137C41.6665 36.321 41.75 36.1649 41.75 35.9977H41.25ZM30 43.4977L29.7227 43.9137C29.8906 44.0257 30.1094 44.0257 30.2773 43.9137L30 43.4977ZM30 6.75C30.1509 6.75 30.29 6.79404 30.4069 6.86982L30.9507 6.03061C30.6767 5.85306 30.3496 5.75 30 5.75V6.75ZM29.5931 6.86982C29.71 6.79404 29.8491 6.75 30 6.75V5.75C29.6504 5.75 29.3233 5.85306 29.0493 6.03061L29.5931 6.86982ZM9.61867 19.3539L29.5862 6.87422L29.0562 6.02622L9.08867 18.5059L9.61867 19.3539ZM9.34636 19.6322C9.41191 19.5154 9.50414 19.423 9.61178 19.3581L9.09556 18.5017C8.84362 18.6535 8.6269 18.8708 8.47418 19.143L9.34636 19.6322ZM9.31219 19.701C9.32235 19.6776 9.33369 19.6548 9.34617 19.6326L8.47438 19.1427C8.44531 19.1944 8.41887 19.2476 8.39517 19.3021L9.31219 19.701ZM9.2499 20.0138C9.24783 19.9094 9.26763 19.8032 9.31204 19.7013L8.39532 19.3018C8.29202 19.5388 8.24524 19.7883 8.2501 20.0336L9.2499 20.0138ZM9.25 39.9763V20.0237H8.25V39.9763H9.25ZM9.31204 40.2987C9.26763 40.1968 9.24783 40.0906 9.2499 39.9862L8.2501 39.9664C8.24524 40.2117 8.29202 40.4612 8.39533 40.6982L9.31204 40.2987ZM9.34617 40.3674C9.33369 40.3452 9.32235 40.3224 9.31219 40.299L8.39517 40.6979C8.41887 40.7524 8.44531 40.8056 8.47438 40.8573L9.34617 40.3674ZM9.61178 40.6419C9.50414 40.577 9.41191 40.4846 9.34636 40.3678L8.47418 40.857C8.6269 41.1292 8.84363 41.3465 9.09558 41.4983L9.61178 40.6419ZM29.5861 53.1258L9.61868 40.6461L9.08868 41.4941L29.0561 53.9738L29.5861 53.1258ZM29.9738 53.2495C29.8332 53.2448 29.7033 53.2016 29.593 53.1302L29.0492 53.9694C29.3074 54.1367 29.6128 54.2379 29.94 54.249L29.9738 53.2495ZM30 53.25C29.9914 53.25 29.9828 53.2499 29.9742 53.2496L29.9396 54.249C29.9598 54.2497 29.9799 54.25 30 54.25V53.25ZM30.0379 53.249C30.0252 53.2497 30.0126 53.25 30 53.25V54.25C30.0294 54.25 30.0588 54.2493 30.0881 54.2478L30.0379 53.249ZM30.407 53.1302C30.2998 53.1996 30.1742 53.2423 30.0382 53.249L30.0878 54.2478C30.4046 54.2321 30.7 54.1319 30.9508 53.9694L30.407 53.1302ZM50.3798 40.6471L30.4139 53.1258L30.9439 53.9738L50.9098 41.4951L50.3798 40.6471ZM50.6708 40.3354C50.6044 40.4683 50.5049 40.5718 50.3873 40.6425L50.9022 41.4997C51.1779 41.3341 51.4114 41.0904 51.5653 40.7826L50.6708 40.3354ZM50.7501 39.9845C50.7527 40.1018 50.7277 40.2217 50.6708 40.3354L51.5653 40.7826C51.6966 40.5199 51.756 40.2385 51.7499 39.9624L50.7501 39.9845ZM50.75 20.0265V39.9734H51.75V20.0265H50.75ZM50.6708 19.6646C50.7277 19.7783 50.7527 19.8982 50.7501 20.0155L51.7499 20.0376C51.756 19.7615 51.6966 19.4801 51.5653 19.2174L50.6708 19.6646ZM50.3873 19.3575C50.5049 19.4282 50.6044 19.5317 50.6709 19.6646L51.5653 19.2174C51.4114 18.9096 51.1779 18.6659 50.9023 18.5003L50.3873 19.3575ZM30.4138 6.87422L50.3798 19.3529L50.9098 18.5049L30.9438 6.02622L30.4138 6.87422ZM47.7125 19.4547L31.515 9.33131L30.985 10.1793L47.1825 20.3027L47.7125 19.4547ZM30.75 9.75531V14.3492H31.75V9.75531H30.75ZM30.9633 14.7588L42.3202 22.7086L42.8936 21.8894L31.5367 13.9396L30.9633 14.7588ZM42.8305 22.7462L47.6711 20.3259L47.2239 19.4315L42.3833 21.8518L42.8305 22.7462ZM43.25 24.5226V35.4774H44.25V24.5226H43.25ZM43.5264 35.9247L48.5264 38.4247L48.9736 37.5302L43.9736 35.0302L43.5264 35.9247ZM49.25 37.9774V22.0226H48.25V37.9774H49.25ZM48.5264 21.5753L43.5264 24.0753L43.9736 24.9698L48.9736 22.4698L48.5264 21.5753ZM42.7234 38.3182L47.2239 40.5685L47.6711 39.6741L43.1706 37.4238L42.7234 38.3182ZM31.5273 46.085L43.2243 38.287L42.6696 37.455L30.9727 45.253L31.5273 46.085ZM31.75 50.2447V45.669H30.75V50.2447H31.75ZM47.1825 39.6973L30.985 49.8207L31.515 50.6687L47.7125 40.5453L47.1825 39.6973ZM16.7757 38.287L28.4727 46.085L29.0273 45.253L17.3304 37.455L16.7757 38.287ZM12.7762 40.5685L17.2767 38.3182L16.8295 37.4238L12.3289 39.6741L12.7762 40.5685ZM29.015 49.8207L12.8175 39.6973L12.2875 40.5453L28.485 50.6687L29.015 49.8207ZM28.25 45.669V50.2447H29.25V45.669H28.25ZM16.0264 35.0303L11.0264 37.5303L11.4736 38.4247L16.4736 35.9247L16.0264 35.0303ZM15.75 24.5225V35.4775H16.75V24.5225H15.75ZM11.0264 22.4697L16.0264 24.9697L16.4736 24.0753L11.4736 21.5753L11.0264 22.4697ZM11.75 37.9775V22.0225H10.75V37.9775H11.75ZM12.8175 20.3027L29.015 10.1793L28.485 9.33131L12.2875 19.4547L12.8175 20.3027ZM17.6167 21.8518L12.7762 19.4315L12.3289 20.3259L17.1695 22.7462L17.6167 21.8518ZM28.4633 13.9396L17.1064 21.8894L17.6798 22.7086L29.0367 14.7588L28.4633 13.9396ZM28.25 9.75531V14.3492H29.25V9.75531H28.25ZM18.25 24.4008V35.9977H19.25V24.4008H18.25ZM29.7133 16.1162L18.4633 23.9912L19.0367 24.8104L30.2867 16.9354L29.7133 16.1162ZM41.5367 23.9912L30.2867 16.1162L29.7133 16.9354L40.9633 24.8104L41.5367 23.9912ZM41.75 35.9977V24.4008H40.75V35.9977H41.75ZM30.2773 43.9137L41.5274 36.4137L40.9726 35.5817L29.7227 43.0817L30.2773 43.9137ZM18.4727 36.4137L29.7227 43.9137L30.2773 43.0817L19.0274 35.5817L18.4727 36.4137Z" fill="#36668D"/>
<path d="M190.615 42.69C189.583 42.918 188.563 43.002 187.555 42.942C186.547 42.894 185.647 42.672 184.855 42.276C184.075 41.868 183.487 41.244 183.091 40.404C182.767 39.72 182.587 39.03 182.551 38.334C182.515 37.638 182.497 36.84 182.497 35.94V17.85H184.585V35.904C184.585 36.72 184.591 37.398 184.603 37.938C184.627 38.466 184.753 38.952 184.981 39.396C185.413 40.224 186.097 40.728 187.033 40.908C187.969 41.076 189.163 41.046 190.615 40.818V42.69ZM178.141 25.14V23.25H190.615V25.14H178.141Z" fill="#56A2FF"/>
<path d="M167.463 43.23C165.603 43.23 163.995 42.816 162.639 41.988C161.283 41.148 160.233 39.966 159.489 38.442C158.745 36.906 158.373 35.094 158.373 33.006C158.373 30.882 158.739 29.052 159.471 27.516C160.215 25.968 161.259 24.78 162.603 23.952C163.959 23.124 165.567 22.71 167.427 22.71C169.311 22.71 170.919 23.142 172.251 24.006C173.595 24.858 174.615 26.094 175.311 27.714C176.019 29.334 176.355 31.284 176.319 33.564H174.159V32.844C174.099 30.18 173.499 28.152 172.359 26.76C171.219 25.368 169.587 24.672 167.463 24.672C165.267 24.672 163.569 25.398 162.369 26.85C161.181 28.29 160.587 30.33 160.587 32.97C160.587 35.586 161.181 37.614 162.369 39.054C163.569 40.494 165.255 41.214 167.427 41.214C168.927 41.214 170.235 40.866 171.351 40.17C172.479 39.462 173.373 38.454 174.033 37.146L175.905 37.974C175.125 39.654 173.997 40.95 172.521 41.862C171.045 42.774 169.359 43.23 167.463 43.23ZM159.795 33.564V31.692H175.149V33.564H159.795Z" fill="#56A2FF"/>
<path d="M135.23 42.69V16.77H137.318L152.33 39V16.77H154.418V42.69H152.33L137.318 20.424V42.69H135.23Z" fill="#56A2FF"/>
<path d="M121.677 43.23C119.841 43.23 118.287 42.78 117.015 41.88C115.755 40.968 114.789 39.738 114.117 38.19C113.457 36.63 113.127 34.878 113.127 32.934C113.127 31.014 113.457 29.28 114.117 27.732C114.777 26.184 115.725 24.96 116.961 24.06C118.209 23.16 119.715 22.71 121.479 22.71C123.291 22.71 124.821 23.154 126.069 24.042C127.317 24.93 128.259 26.148 128.895 27.696C129.531 29.232 129.849 30.978 129.849 32.934C129.849 34.878 129.531 36.624 128.895 38.172C128.259 39.72 127.335 40.95 126.123 41.862C124.911 42.774 123.429 43.23 121.677 43.23ZM121.803 41.25C123.255 41.25 124.461 40.89 125.421 40.17C126.393 39.438 127.113 38.448 127.581 37.2C128.061 35.94 128.301 34.518 128.301 32.934C128.301 31.338 128.061 29.916 127.581 28.668C127.101 27.42 126.381 26.448 125.421 25.752C124.461 25.044 123.267 24.69 121.839 24.69C120.363 24.69 119.145 25.056 118.185 25.788C117.225 26.508 116.511 27.492 116.043 28.74C115.575 29.976 115.341 31.374 115.341 32.934C115.341 34.506 115.581 35.922 116.061 37.182C116.553 38.43 117.273 39.42 118.221 40.152C119.181 40.884 120.375 41.25 121.803 41.25ZM128.301 42.69V27.714H128.121V16.77H130.191V42.69H128.301Z" fill="#56A2FF"/>
<path d="M101.369 43.23C99.5094 43.23 97.9014 42.816 96.5454 41.988C95.1894 41.148 94.1394 39.966 93.3954 38.442C92.6514 36.906 92.2794 35.094 92.2794 33.006C92.2794 30.882 92.6454 29.052 93.3774 27.516C94.1214 25.968 95.1654 24.78 96.5094 23.952C97.8654 23.124 99.4734 22.71 101.333 22.71C103.217 22.71 104.825 23.142 106.157 24.006C107.501 24.858 108.521 26.094 109.217 27.714C109.925 29.334 110.261 31.284 110.225 33.564H108.065V32.844C108.005 30.18 107.405 28.152 106.265 26.76C105.125 25.368 103.493 24.672 101.369 24.672C99.1734 24.672 97.4754 25.398 96.2754 26.85C95.0874 28.29 94.4934 30.33 94.4934 32.97C94.4934 35.586 95.0874 37.614 96.2754 39.054C97.4754 40.494 99.1614 41.214 101.333 41.214C102.833 41.214 104.141 40.866 105.257 40.17C106.385 39.462 107.279 38.454 107.939 37.146L109.811 37.974C109.031 39.654 107.903 40.95 106.427 41.862C104.951 42.774 103.265 43.23 101.369 43.23ZM93.7014 33.564V31.692H109.055V33.564H93.7014Z" fill="#56A2FF"/>
<path d="M71 42.69V16.77H80.774C81.026 16.77 81.296 16.782 81.584 16.806C81.884 16.818 82.196 16.854 82.52 16.914C83.816 17.118 84.926 17.586 85.85 18.318C86.786 19.038 87.5 19.95 87.992 21.054C88.484 22.146 88.73 23.352 88.73 24.672C88.73 26.58 88.22 28.242 87.2 29.658C86.18 31.074 84.758 31.974 82.934 32.358L82.34 32.592H73.07V42.69H71ZM86.966 42.69L81.854 32.142L83.78 31.17L89.396 42.69H86.966ZM73.07 30.558H80.738C80.954 30.558 81.2 30.546 81.476 30.522C81.764 30.498 82.052 30.462 82.34 30.414C83.276 30.222 84.056 29.844 84.68 29.28C85.304 28.704 85.772 28.014 86.084 27.21C86.396 26.406 86.552 25.56 86.552 24.672C86.552 23.784 86.396 22.944 86.084 22.152C85.772 21.348 85.304 20.664 84.68 20.1C84.056 19.524 83.276 19.14 82.34 18.948C82.052 18.888 81.764 18.846 81.476 18.822C81.2 18.798 80.954 18.786 80.738 18.786H73.07V30.558Z" fill="#56A2FF"/>
<path fill-rule="evenodd" clip-rule="evenodd" d="M187.555 42.942C188.563 43.002 189.583 42.918 190.615 42.69V40.818C190.267 40.8726 189.933 40.9159 189.615 40.9478C188.605 41.049 187.744 41.0357 187.033 40.908C186.097 40.728 185.413 40.224 184.981 39.396C184.753 38.952 184.627 38.466 184.603 37.938C184.591 37.398 184.585 36.72 184.585 35.904V25.14H190.615V23.25H184.585V17.85H182.497V23.25H178.141V25.14H182.497V35.94C182.497 36.84 182.515 37.638 182.551 38.334C182.587 39.03 182.767 39.72 183.091 40.404C183.487 41.244 184.075 41.868 184.855 42.276C185.647 42.672 186.547 42.894 187.555 42.942ZM187.501 43.9406C188.604 44.0056 189.715 43.913 190.831 43.6664L191.615 43.4932V39.6487L190.46 39.8301C189.068 40.0486 187.999 40.0643 187.216 39.9249C186.577 39.8005 186.156 39.484 185.869 38.9364C185.713 38.6316 185.621 38.292 185.602 37.9052C185.591 37.377 185.585 36.7105 185.585 35.904V26.14H191.615V22.25H185.585V16.85H181.497V22.25H177.141V26.14H181.497V35.94C181.497 36.8525 181.515 37.6683 181.552 38.3856C181.595 39.2224 181.812 40.0391 182.186 40.8304" fill="#36668D"/>
<path fill-rule="evenodd" clip-rule="evenodd" d="M162.639 41.988C163.995 42.816 165.603 43.23 167.463 43.23C169.359 43.23 171.045 42.774 172.521 41.862C173.726 41.1176 174.699 40.1175 175.44 38.8615C175.607 38.5787 175.762 38.2828 175.905 37.974L174.033 37.146C173.373 38.454 172.479 39.462 171.351 40.17C170.235 40.866 168.927 41.214 167.427 41.214C165.255 41.214 163.569 40.494 162.369 39.054C161.435 37.9212 160.868 36.4245 160.668 34.564C160.634 34.2416 160.61 33.9082 160.598 33.564H176.319C176.323 33.3433 176.323 33.1258 176.319 32.9114C176.317 32.7946 176.314 32.6788 176.31 32.564C176.288 31.9265 176.235 31.3172 176.149 30.7361C176.147 30.7214 176.145 30.7067 176.143 30.692C175.978 29.5991 175.701 28.6065 175.311 27.714C174.615 26.094 173.595 24.858 172.251 24.006C170.919 23.142 169.311 22.71 167.427 22.71C165.567 22.71 163.959 23.124 162.603 23.952C161.259 24.78 160.215 25.968 159.471 27.516C158.739 29.052 158.373 30.882 158.373 33.006C158.373 35.094 158.745 36.906 159.489 38.442C160.233 39.966 161.283 41.148 162.639 41.988ZM173.972 30.692C173.707 29.06 173.169 27.7493 172.359 26.76C171.219 25.368 169.587 24.672 167.463 24.672C165.267 24.672 163.569 25.398 162.369 26.85C161.549 27.8445 161.012 29.1251 160.758 30.692C160.706 31.0133 160.666 31.3466 160.637 31.692H174.096C174.065 31.3462 174.024 31.0129 173.972 30.692ZM172.957 30.692C172.706 29.2685 172.233 28.1847 171.585 27.3936C170.671 26.2763 169.348 25.672 167.463 25.672C165.511 25.672 164.118 26.304 163.141 27.4863C162.483 28.2838 162.013 29.3388 161.772 30.692H172.957ZM172.791 23.1643C171.27 22.1787 169.466 21.71 167.427 21.71C165.415 21.71 163.62 22.1593 162.082 23.0985L162.079 23.1006C160.557 24.0378 159.389 25.378 158.57 27.0828L158.568 27.0858C157.758 28.7852 157.373 30.7691 157.373 33.006C157.373 35.2118 157.766 37.179 158.589 38.8779L158.59 38.8807C159.412 40.5629 160.586 41.8924 162.113 42.8381L162.118 42.8414C163.656 43.7806 165.451 44.23 167.463 44.23C169.527 44.23 171.398 43.7312 173.047 42.7127C174.701 41.6908 175.956 40.2399 176.812 38.3951L177.241 37.4714L173.568 35.847L173.14 36.6955C172.554 37.8573 171.779 38.7208 170.82 39.3224C169.885 39.9055 168.766 40.214 167.427 40.214C165.5 40.214 164.118 39.589 163.139 38.4157C162.376 37.4905 161.868 36.2271 161.674 34.564H177.303L177.319 33.5797C177.357 31.1978 177.007 29.0991 176.229 27.3164C175.463 25.5352 174.32 24.1351 172.791 23.1643Z" fill="#36668D"/>
<path fill-rule="evenodd" clip-rule="evenodd" d="M134.23 43.69V15.77H137.85L151.33 35.7324V15.77H155.418V43.69H151.799L138.318 23.6961V43.69H134.23ZM137.318 20.424L152.33 42.69H154.418V16.77H152.33V39L137.318 16.77H135.23V42.69H137.318V20.424Z" fill="#36668D"/>
<path fill-rule="evenodd" clip-rule="evenodd" d="M116.429 42.6901C115.011 41.6641 113.937 40.2863 113.2 38.5882L113.196 38.5797C112.477 36.8795 112.127 34.9923 112.127 32.934C112.127 30.8981 112.477 29.0281 113.197 27.3398C113.921 25.6429 114.976 24.2684 116.372 23.2516L116.376 23.2489C117.819 22.2087 119.537 21.71 121.479 21.71C123.46 21.71 125.202 22.1979 126.649 23.2272C126.811 23.3426 126.968 23.4628 127.121 23.5878V15.77H131.191V43.69H127.301V42.1886C127.116 42.3534 126.924 42.511 126.724 42.6611C125.313 43.7231 123.611 44.23 121.677 44.23C119.672 44.23 117.907 43.736 116.437 42.6964L116.429 42.6901ZM127.301 40.7749C127.674 40.3547 128.007 39.891 128.301 39.3838V42.69H130.191V16.77H128.121V26.2016C127.825 25.7416 127.492 25.3217 127.121 24.942C126.799 24.6116 126.448 24.3116 126.069 24.042C124.821 23.154 123.291 22.71 121.479 22.71C119.715 22.71 118.209 23.16 116.961 24.06C115.725 24.96 114.777 26.184 114.117 27.732C113.457 29.28 113.127 31.014 113.127 32.934C113.127 34.878 113.457 36.63 114.117 38.19C114.789 39.738 115.755 40.968 117.015 41.88C118.287 42.78 119.841 43.23 121.677 43.23C123.429 43.23 124.911 42.774 126.123 41.862C126.552 41.5394 126.944 41.1771 127.301 40.7749ZM127.121 27.684C126.679 26.897 126.112 26.253 125.421 25.752C124.461 25.044 123.267 24.69 121.839 24.69C120.363 24.69 119.145 25.056 118.185 25.788C117.225 26.508 116.511 27.492 116.043 28.74C115.575 29.976 115.341 31.374 115.341 32.934C115.341 34.506 115.581 35.922 116.061 37.182C116.553 38.43 117.273 39.42 118.221 40.152C119.181 40.884 120.375 41.25 121.803 41.25C123.255 41.25 124.461 40.89 125.421 40.17C126.216 39.571 126.843 38.7992 127.301 37.8546C127.403 37.6449 127.496 37.4267 127.581 37.2C128.061 35.94 128.301 34.518 128.301 32.934C128.301 31.3576 128.067 29.9509 127.599 28.714C127.593 28.6987 127.587 28.6833 127.581 28.668C127.495 28.4452 127.402 28.2313 127.301 28.0261C127.249 27.9197 127.194 27.8157 127.138 27.714C127.132 27.704 127.127 27.694 127.121 27.684ZM124.821 39.3701C125.626 38.7634 126.237 37.9359 126.645 36.8489L126.647 36.844C127.076 35.7157 127.301 34.4172 127.301 32.934C127.301 31.4376 127.076 30.1406 126.648 29.027C126.228 27.9358 125.618 27.13 124.834 26.5616L124.827 26.5568C124.071 25.9991 123.097 25.69 121.839 25.69C120.532 25.69 119.541 26.0115 118.791 26.5832L118.785 26.588C117.994 27.1811 117.388 28.0013 116.979 29.0911L116.978 29.0941C116.56 30.1986 116.341 31.4736 116.341 32.934C116.341 34.4018 116.565 35.6926 116.993 36.8204C117.427 37.9176 118.044 38.7508 118.83 39.3587C119.585 39.9335 120.554 40.25 121.803 40.25C123.085 40.25 124.068 39.9348 124.821 39.3701Z" fill="#36668D"/>
<path fill-rule="evenodd" clip-rule="evenodd" d="M96.5454 41.988C97.9014 42.816 99.5094 43.23 101.369 43.23C103.265 43.23 104.951 42.774 106.427 41.862C107.632 41.1176 108.605 40.1175 109.346 38.8615C109.513 38.5787 109.668 38.2828 109.811 37.974L107.939 37.146C107.279 38.454 106.385 39.462 105.257 40.17C104.141 40.866 102.833 41.214 101.333 41.214C99.1614 41.214 97.4754 40.494 96.2754 39.054C95.3408 37.9212 94.7739 36.4245 94.5745 34.564C94.5399 34.2416 94.5164 33.9082 94.504 33.564H110.225C110.229 33.3433 110.229 33.1258 110.225 32.9113C110.223 32.7946 110.221 32.6788 110.217 32.564C110.195 31.9265 110.141 31.3172 110.055 30.7361C110.053 30.7214 110.051 30.7066 110.049 30.692C109.885 29.5991 109.607 28.6065 109.217 27.714C108.521 26.094 107.501 24.858 106.157 24.006C104.825 23.142 103.217 22.71 101.333 22.71C99.4734 22.71 97.8654 23.124 96.5094 23.952C95.1654 24.78 94.1214 25.968 93.3774 27.516C92.6454 29.052 92.2794 30.882 92.2794 33.006C92.2794 35.094 92.6514 36.906 93.3954 38.442C94.1394 39.966 95.1894 41.148 96.5454 41.988ZM107.878 30.692C107.613 29.06 107.076 27.7493 106.265 26.76C105.125 25.368 103.493 24.672 101.369 24.672C99.1734 24.672 97.4754 25.398 96.2754 26.85C95.4549 27.8445 94.9178 29.1251 94.664 30.692C94.6119 31.0133 94.5718 31.3466 94.5435 31.692H108.002C107.971 31.3462 107.93 31.0129 107.878 30.692ZM106.864 30.692C106.612 29.2685 106.14 28.1847 105.492 27.3936C104.577 26.2763 103.254 25.672 101.369 25.672C99.4168 25.672 98.0242 26.304 97.0468 27.4863C96.3888 28.2838 95.9191 29.3388 95.6781 30.692H106.864ZM106.697 23.1642C105.176 22.1787 103.372 21.71 101.333 21.71C99.3213 21.71 97.5263 22.1593 95.9882 23.0985L95.9849 23.1006C94.4635 24.0378 93.2954 25.378 92.4761 27.0828L92.4747 27.0858C91.6647 28.7852 91.2794 30.7691 91.2794 33.006C91.2794 35.2118 91.6725 37.179 92.4954 38.8779L92.4968 38.8807C93.318 40.5629 94.4922 41.8924 96.0188 42.8381L96.0242 42.8414C97.5623 43.7806 99.3573 44.23 101.369 44.23C103.433 44.23 105.305 43.7312 106.953 42.7127C108.607 41.6908 109.862 40.2399 110.718 38.3951L111.147 37.4714L107.475 35.847L107.047 36.6955C106.46 37.8573 105.685 38.7208 104.727 39.3224C103.791 39.9055 102.672 40.214 101.333 40.214C99.4067 40.214 98.0239 39.589 97.0452 38.4157C96.2826 37.4905 95.7739 36.2271 95.5806 34.564H111.21L111.225 33.5797C111.263 31.1978 110.913 29.0991 110.135 27.3164C109.369 25.5351 108.227 24.135 106.697 23.1642Z" fill="#36668D"/>
<path fill-rule="evenodd" clip-rule="evenodd" d="M70 43.69V15.77H80.774C81.051 15.77 81.3419 15.7829 81.646 15.8077C81.9867 15.8225 82.3346 15.8633 82.6888 15.9283C84.1273 16.1567 85.3961 16.6843 86.4654 17.5298C87.5329 18.3524 88.3476 19.3961 88.9046 20.6451C89.4599 21.8784 89.73 23.2257 89.73 24.672C89.73 26.7692 89.1655 28.6403 88.0114 30.2425C87.3338 31.1831 86.5005 31.9237 85.5238 32.4649L90.996 43.69H86.3394L81.4455 33.592H74.07V43.69H70ZM73.07 32.592H82.0721L86.966 42.69H89.396L84.1804 31.9914C84.1843 31.9898 84.1883 31.9883 84.1922 31.9868C84.5045 31.8651 84.8021 31.7244 85.0849 31.5647C85.9184 31.094 86.6234 30.4585 87.2 29.658C88.22 28.242 88.73 26.58 88.73 24.672C88.73 23.352 88.484 22.146 87.992 21.054C87.5 19.95 86.786 19.038 85.85 18.318C84.926 17.586 83.816 17.118 82.52 16.914C82.196 16.854 81.884 16.818 81.584 16.806C81.296 16.782 81.026 16.77 80.774 16.77H71V42.69H73.07V32.592ZM81.476 30.522C81.764 30.498 82.052 30.462 82.34 30.414C83.276 30.222 84.056 29.844 84.68 29.28C85.304 28.704 85.772 28.014 86.084 27.21C86.396 26.406 86.552 25.56 86.552 24.672C86.552 23.784 86.396 22.944 86.084 22.152C85.772 21.348 85.304 20.664 84.68 20.1C84.056 19.524 83.276 19.14 82.34 18.948C82.052 18.888 81.764 18.846 81.476 18.822C81.2 18.798 80.954 18.786 80.738 18.786H73.07V30.558H80.738C80.954 30.558 81.2 30.546 81.476 30.522ZM74.07 29.558H80.738C80.9184 29.558 81.1346 29.5479 81.3894 29.5258L81.393 29.5255C81.6472 29.5043 81.9019 29.4727 82.1569 29.4307C82.9315 29.2691 83.5355 28.9652 84.0057 28.5416C84.5139 28.0713 84.8946 27.5108 85.1517 26.8482C85.4176 26.163 85.552 25.44 85.552 24.672C85.552 23.904 85.4176 23.1888 85.1536 22.5185L85.1517 22.5138C84.8947 21.8514 84.5148 21.2986 84.0095 20.8419L84.0017 20.8349C83.5277 20.3974 82.9195 20.0877 82.1391 19.9276L82.136 19.927C81.8872 19.8752 81.6396 19.8391 81.393 19.8186L81.3894 19.8183C81.1346 19.7961 80.9184 19.786 80.738 19.786H74.07V29.558Z" fill="#36668D"/>
</svg>
